# xmcd
#
# Track frame offsets:
#	150
#	15568
#	21419
#	49543
#	70545
#	90591
#	105294
#	120701
#	149296
#	165926
#	183494
#	186370
#	208181
#	229139
#	257184
#
# Disc length: 3491 seconds
#
# Revision: 0
# Processed by: cddbd v1.4PL0 Copyright (c) Steve Scherf et al.
# Submitted via: dBpowerAMP V4.0
#
DISCID=c50da10f
DTITLE=Cosmic Dust Devils - Cosmic Dust Devils
DYEAR=2002
DGENRE=Country
TTITLE0=Natchez Trace
TTITLE1=Little Train Song
TTITLE2=Railroaded
TTITLE3=Alligator Mouth
TTITLE4=Slow Setting Sun
TTITLE5=Take Me Home
TTITLE6=Mestenos Island
TTITLE7=Scratch
TTITLE8=Junkyard
TTITLE9=Now and Then
TTITLE10=Mother Country
TTITLE11=Your Kind
TTITLE12=Damn . . .
TTITLE13=Angel of Dixie
TTITLE14=Kerrville Mud
EXTD=
EXTT0=
EXTT1=
EXTT2=
EXTT3=
EXTT4=
EXTT5=
EXTT6=
EXTT7=
EXTT8=
EXTT9=
EXTT10=
EXTT11=
EXTT12=
EXTT13=
EXTT14=
PLAYORDER=
